<svg xmlns="http://www.w3.org/2000/svg" viewBox="-45 -55 520 440" role="img" aria-labelledby="title desc">
  <title id="title">YK contact mark</title>
  <desc id="desc">YK monogram with a single notification dot at the upper left.</desc>
  <defs>
    <linearGradient id="face" x1="0" y1="0" x2="1" y2="1">
      <stop offset="0" stop-color="#ffffff"/>
      <stop offset=".58" stop-color="#f8fafc"/>
      <stop offset="1" stop-color="#dbe2ea"/>
    </linearGradient>
    <filter id="shadow" x="-25%" y="-25%" width="165%" height="175%">
      <feDropShadow dx="0" dy="7" stdDeviation="6" flood-color="#030507" flood-opacity=".32"/>
    </filter>
  </defs>
  <g filter="url(#shadow)">
    <circle cx="18" cy="-10" r="23" fill="#aeb8c4" opacity=".38" transform="translate(5 7)"/>
    <circle cx="18" cy="-10" r="23" fill="url(#face)"/>
    <g transform="translate(5 7)" fill="#aeb8c4" opacity=".38">
      <path d="M267 201 L250 224 L250 227 L321 337 L355 337 Z"/>
      <path d="M304 150 L287 174 L391 336 L426 337 Z"/>
      <path d="M344 8 L318 8 L193 203 L193 337 L221 337 L221 205 Z"/>
      <path d="M73 8 L177 169 L281 9 L255 9 L177 129 L99 8 Z"/>
      <path d="M11 8 L134 206 L133 336 L162 337 L162 203 L36 8 Z"/>
    </g>
    <g fill="url(#face)">
      <path d="M267 201 L250 224 L250 227 L321 337 L355 337 Z"/>
      <path d="M304 150 L287 174 L391 336 L426 337 Z"/>
      <path d="M344 8 L318 8 L193 203 L193 337 L221 337 L221 205 Z"/>
      <path d="M73 8 L177 169 L281 9 L255 9 L177 129 L99 8 Z"/>
      <path d="M11 8 L134 206 L133 336 L162 337 L162 203 L36 8 Z"/>
    </g>
  </g>
</svg>